<svg width="50" height="50" viewBox="0 0 50 50" fill="none" xmlns="http://www.w3.org/2000/svg">
<rect width="50" height="50" rx="12" fill="#F3F6F9"/>
<path d="M20.3228 39C16.813 39 13.9577 36.1447 13.9577 32.6349V21.7345C13.9577 15.8155 18.7731 11 24.6921 11H25.3078C31.2269 11 36.0424 15.8155 36.0424 21.7345C36.0424 27.1662 31.993 31.7001 26.6878 32.3807V32.6349C26.6878 36.1447 23.8325 39 20.3228 39Z" fill="#FF3C3C"/>
<path d="M25.3078 11H25V36.9471C26.0471 35.8123 26.6878 34.2971 26.6878 32.6349V32.3807C31.993 31.7001 36.0424 27.1662 36.0424 21.7345C36.0423 15.8155 31.2269 11 25.3078 11Z" fill="#DA0806"/>
<path d="M25.3079 14.2729H24.6921C20.5779 14.2729 17.2306 17.6203 17.2306 21.7345V32.6347C17.2306 34.34 18.6175 35.7269 20.3228 35.7269C22.0275 35.7269 23.4145 34.34 23.4145 32.6347V29.1961H25.3078C29.422 29.1961 32.7694 25.8487 32.7694 21.7345C32.7694 17.6203 29.4221 14.2729 25.3079 14.2729ZM25.3079 24.6608H22.5899C22.1348 24.6608 21.7653 24.2919 21.7653 23.8361V21.7345C21.7653 20.1204 23.0781 18.8077 24.6921 18.8077H25.3079C26.9219 18.8077 28.2347 20.1204 28.2347 21.7345C28.2347 23.348 26.9219 24.6608 25.3079 24.6608Z" fill="white"/>
<path d="M25.3078 14.2729H25V18.8077H25.3078C26.9219 18.8077 28.2347 20.1205 28.2347 21.7345C28.2347 23.348 26.9219 24.6608 25.3078 24.6608H25V29.1962H25.3078C29.4221 29.1962 32.7694 25.8488 32.7694 21.7346C32.7694 17.6204 29.4221 14.2729 25.3078 14.2729Z" fill="#DCE1EB"/>
</svg>
