<svg width="50" height="50" viewBox="0 0 50 50" fill="none" xmlns="http://www.w3.org/2000/svg">
<rect width="50" height="50" rx="12" fill="#F3F6F9"/>
<g clip-path="url(#clip0_1_289)">
<path d="M26.132 32.4678L20.6523 37.9312C20.4883 38.0296 20.275 38.2757 19.832 38.1444C19.6023 38.0624 19.3234 37.7999 19.2742 37.5046V37.4882L17.6992 28.071L18.9789 27.1031C19.1446 27.2003 22.3068 29.0546 22.1124 28.9406L26.132 31.3031C26.4437 31.6312 26.4437 32.1398 26.132 32.4678Z" fill="#009AE4"/>
<path d="M38.984 12.8027L34.007 37.521C33.9578 37.7835 33.7609 38.0132 33.4984 38.1117C33.4 38.1609 33.3016 38.1773 33.2031 38.1773C33.0391 38.1773 32.875 38.1281 32.7273 38.0296C32.5623 37.9117 20.474 29.2772 21.243 29.8265C13.9236 26.2007 17.7415 28.1064 11.4594 24.9702C11.1641 24.8226 11 24.5273 11 24.2156C11.0164 23.8874 11.1969 23.6085 11.4922 23.4773L37.852 11.884C38.1309 11.7691 38.459 11.8019 38.6887 11.9988C38.7215 12.0316 38.7708 12.0808 38.8036 12.1137C38.9676 12.3105 39.0333 12.5566 38.984 12.8027Z" fill="#25D9F8"/>
<path d="M38.8036 12.1137L22.1125 28.9406L21.243 29.8264L19.832 38.1444C19.6024 38.0624 19.3234 37.7998 19.2743 37.5046V37.4882L17.6992 28.071L18.979 27.1031L38.8036 12.1137Z" fill="#00C0F1"/>
</g>
<defs>
<clipPath id="clip0_1_289">
<rect width="28" height="28" fill="white" transform="translate(11 11)"/>
</clipPath>
</defs>
</svg>
