<svg width="50" height="50" viewBox="0 0 50 50" fill="none" xmlns="http://www.w3.org/2000/svg">
<rect width="50" height="50" rx="12" fill="#F3F6F9"/>
<g clip-path="url(#clip0_1_276)">
<path d="M32.508 25.984H27.4381C27.2031 25.984 27.0125 25.7934 27.0125 25.5584V24.7553C27.0125 24.6307 27.0671 24.5124 27.1619 24.4315C27.6539 24.0119 27.936 23.4009 27.936 22.7552C27.936 21.5408 26.948 20.5527 25.7336 20.5527C24.5192 20.5527 23.5312 21.5408 23.5312 22.7552C23.5312 23.3692 23.7778 23.9392 24.2256 24.3601C24.3112 24.4406 24.3596 24.5528 24.3596 24.6702V25.5584C24.3596 25.7935 24.1691 25.984 23.934 25.984H18.492C18.2569 25.984 18.0664 25.7935 18.0664 25.5584V11.4256C18.0664 11.1905 18.2569 11 18.492 11H32.508C32.7431 11 32.9336 11.1905 32.9336 11.4256V15.2048H33.1912C33.7547 14.6761 34.5064 14.3763 35.282 14.3763C36.9658 14.3763 38.3356 15.7462 38.3356 17.4299C38.3356 19.1137 36.9658 20.4835 35.282 20.4835C34.4544 20.4835 33.6679 20.1493 33.0943 19.56H32.9335V25.5584C32.9335 25.7935 32.7431 25.984 32.508 25.984Z" fill="#FF7C48"/>
<path d="M35.282 14.3763C34.5064 14.3763 33.7546 14.6761 33.1911 15.2048H32.9336V11.4256C32.9336 11.1905 32.743 11 32.508 11H25.7335V20.5527C26.9479 20.5527 27.936 21.5408 27.936 22.7552C27.936 23.4009 27.6538 24.0119 27.1619 24.4315C27.0671 24.5124 27.0125 24.6307 27.0125 24.7553V25.5584C27.0125 25.7934 27.203 25.984 27.4381 25.984H32.508C32.743 25.984 32.9336 25.7934 32.9336 25.5584V19.56H33.0943C33.6679 20.1492 34.4544 20.4835 35.2821 20.4835C36.9658 20.4835 38.3357 19.1136 38.3357 17.4299C38.3357 15.7461 36.9658 14.3763 35.282 14.3763Z" fill="#FF415B"/>
<path d="M32.508 40.0001H18.492C18.2569 40.0001 18.0664 39.8096 18.0664 39.5745V34.6966H17.9057C17.332 35.2858 16.5456 35.6201 15.718 35.6201C14.0342 35.6201 12.6643 34.2502 12.6643 32.5665C12.6643 30.8827 14.0342 29.5129 15.718 29.5129C16.4937 29.5129 17.2454 29.8127 17.8088 30.3413H18.0664V25.5584C18.0664 25.3234 18.2569 25.1329 18.492 25.1329H23.5084V24.8461C22.9798 24.2826 22.68 23.531 22.68 22.7552C22.68 21.0715 24.0498 19.7016 25.7336 19.7016C27.4173 19.7016 28.7872 21.0715 28.7872 22.7552C28.7872 23.5829 28.4529 24.3694 27.8637 24.943V25.1329H32.508C32.743 25.1329 32.9336 25.3234 32.9336 25.5585V30.767C32.9336 31.002 32.743 31.1926 32.508 31.1926H31.649C31.5316 31.1926 31.4193 31.144 31.3389 31.0585C30.918 30.6107 30.348 30.3642 29.734 30.3642C28.5196 30.3642 27.5315 31.3522 27.5315 32.5666C27.5315 33.781 28.5196 34.769 29.734 34.769C30.3796 34.769 30.9907 34.4868 31.4103 33.9949C31.4912 33.9001 31.6095 33.8455 31.7341 33.8455H32.5079C32.743 33.8455 32.9335 34.036 32.9335 34.2711V39.5746C32.9335 39.8096 32.743 40.0001 32.508 40.0001Z" fill="#8EE16A"/>
<path d="M29.7339 30.3641C30.348 30.3641 30.918 30.6107 31.3389 31.0584C31.4193 31.144 31.5315 31.1925 31.649 31.1925H32.508C32.743 31.1925 32.9335 31.002 32.9335 30.7669V25.5584C32.9335 25.3234 32.743 25.1328 32.508 25.1328H27.8636V24.9429C28.4528 24.3693 28.7871 23.5828 28.7871 22.7551C28.7871 21.0714 27.4172 19.7015 25.7335 19.7015V40H32.5079C32.7429 40 32.9335 39.8095 32.9335 39.5744V34.2709C32.9335 34.0358 32.7429 33.8453 32.5079 33.8453H31.7341C31.6095 33.8453 31.4911 33.8999 31.4103 33.9947C30.9906 34.4866 30.3796 34.7687 29.7339 34.7687C28.5195 34.7687 27.5315 33.7808 27.5315 32.5664C27.5315 31.3521 28.5195 30.3641 29.7339 30.3641Z" fill="#00CAB1"/>
</g>
<defs>
<clipPath id="clip0_1_276">
<rect width="29" height="29" fill="white" transform="translate(11 11)"/>
</clipPath>
</defs>
</svg>
