<svg width="41" height="30" viewBox="0 0 41 30" fill="none" xmlns="http://www.w3.org/2000/svg">
<rect width="41" height="30" rx="6" fill="#F3F6F9"/>
<path d="M7.523 12.057V14.579H5.066V16.165H7.523V18.687H9.239V16.165H11.696V14.579H9.239V12.057H7.523ZM15.0348 14.982C14.0988 15.372 13.5138 16.191 13.5138 17.309C13.5138 19.116 14.9958 20.208 16.9328 20.208C18.8828 20.208 20.3648 19.116 20.3648 17.309C20.3648 16.204 19.7798 15.385 18.8438 14.982C19.5848 14.605 20.1308 13.89 20.1308 12.889C20.1308 11.537 19.0908 10.341 16.9328 10.341C14.7748 10.341 13.7348 11.524 13.7348 12.889C13.7348 13.916 14.2548 14.579 15.0348 14.982ZM16.9328 14.449C16.1138 14.449 15.5158 13.942 15.5158 13.162C15.5158 12.278 16.0878 11.81 16.9328 11.81C17.8038 11.81 18.3628 12.291 18.3628 13.149C18.3628 13.929 17.7648 14.449 16.9328 14.449ZM16.9328 15.775C17.9078 15.775 18.5838 16.295 18.5838 17.231C18.5838 18.063 17.9728 18.7 16.9328 18.7C15.8928 18.7 15.2688 18.076 15.2688 17.231C15.2688 16.269 15.9838 15.775 16.9328 15.775ZM21.6983 19.87H28.1203V18.362H24.2853C25.7933 17.088 27.9123 15.372 27.9123 13.175C27.9123 11.524 26.8853 10.315 24.8443 10.315C23.1413 10.315 21.7503 11.316 21.6853 13.487H23.4533C23.4663 12.486 23.9473 11.862 24.8183 11.862C25.7153 11.862 26.0923 12.434 26.0923 13.279C26.0923 15.021 23.8433 16.698 21.6983 18.518V19.87ZM32.1791 21.131H33.0111V20.078C34.9091 19.948 35.9491 18.713 35.9491 17.387C35.9491 15.463 34.3631 15.112 33.0111 14.761V12.304C33.5181 12.46 33.8301 12.85 33.8821 13.357H35.8451C35.7281 11.81 34.6361 10.939 33.0111 10.809V9.756H32.1791V10.809C30.4891 10.939 29.2671 11.94 29.2671 13.474C29.2671 15.398 30.8401 15.775 32.1791 16.113V18.596C31.5811 18.466 31.2691 18.063 31.2171 17.465H29.2671C29.3061 19.025 30.5021 19.922 32.1791 20.065V21.131ZM34.0641 17.465C34.0641 18.05 33.6741 18.505 33.0111 18.622V16.347C33.6221 16.555 34.0641 16.854 34.0641 17.465ZM31.1651 13.383C31.1651 12.72 31.5811 12.356 32.1791 12.265V14.514C31.5811 14.306 31.1651 13.994 31.1651 13.383Z" fill="#7E8299"/>
</svg>
