<svg width="50" height="50" viewBox="0 0 50 50" fill="none" xmlns="http://www.w3.org/2000/svg">
<path d="M43.75 20.8333H27.0833V22.9167C27.0833 24.1667 26.25 25 25 25C23.75 25 22.9167 24.1667 22.9167 22.9167V20.8333H6.24999C4.99999 20.8333 4.16666 21.6667 4.16666 22.9167V27.0833H45.8333V22.9167C45.8333 21.6667 45 20.8333 43.75 20.8333Z" fill="#A1A5B7"/>
<path opacity="0.3" d="M25 25C23.75 25 22.9167 24.1667 22.9167 22.9167V6.25C22.9167 5 23.75 4.16666 25 4.16666C26.25 4.16666 27.0833 5 27.0833 6.25V22.9167C27.0833 24.1667 26.25 25 25 25Z" fill="#A1A5B7"/>
<path opacity="0.3" d="M37.7083 43.75H12.2917C11.25 43.75 10.2083 42.9166 10 41.875L6.25 27.0833H43.75L40 41.875C39.7917 42.9166 38.75 43.75 37.7083 43.75ZM27.0833 37.5V31.25C27.0833 30 26.25 29.1667 25 29.1667C23.75 29.1667 22.9167 30 22.9167 31.25V37.5C22.9167 38.75 23.75 39.5833 25 39.5833C26.25 39.5833 27.0833 38.75 27.0833 37.5ZM35.4167 37.5V31.25C35.4167 30 34.5833 29.1667 33.3333 29.1667C32.0833 29.1667 31.25 30 31.25 31.25V37.5C31.25 38.75 32.0833 39.5833 33.3333 39.5833C34.5833 39.5833 35.4167 38.75 35.4167 37.5ZM18.75 37.5V31.25C18.75 30 17.9167 29.1667 16.6667 29.1667C15.4167 29.1667 14.5833 30 14.5833 31.25V37.5C14.5833 38.75 15.4167 39.5833 16.6667 39.5833C17.9167 39.5833 18.75 38.75 18.75 37.5Z" fill="#A1A5B7"/>
</svg>
