<svg width="50" height="50" viewBox="0 0 50 50" fill="none" xmlns="http://www.w3.org/2000/svg">
<path opacity="0.3" d="M22.9167 13.5417C22.9167 18.75 18.75 22.9167 13.5417 22.9167C8.33332 22.9167 4.16666 18.75 4.16666 13.5417C4.16666 8.33332 8.33332 4.16666 13.5417 4.16666C18.75 4.16666 22.9167 8.33332 22.9167 13.5417ZM36.4583 4.16666C31.25 4.16666 27.0833 8.33332 27.0833 13.5417C27.0833 18.75 31.25 22.9167 36.4583 22.9167C41.6667 22.9167 45.8333 18.75 45.8333 13.5417C45.8333 8.33332 41.6667 4.16666 36.4583 4.16666ZM13.5417 27.0833C8.33332 27.0833 4.16666 31.25 4.16666 36.4583C4.16666 41.6667 8.33332 45.8333 13.5417 45.8333C18.75 45.8333 22.9167 41.6667 22.9167 36.4583C22.9167 31.25 18.75 27.0833 13.5417 27.0833ZM36.4583 27.0833C31.25 27.0833 27.0833 31.25 27.0833 36.4583C27.0833 41.6667 31.25 45.8333 36.4583 45.8333C41.6667 45.8333 45.8333 41.6667 45.8333 36.4583C45.8333 31.25 41.6667 27.0833 36.4583 27.0833Z" fill="#A1A5B7"/>
<path d="M36.4588 33.3332C36.4588 33.3332 36.2504 33.3332 36.4588 33.3332L34.7921 31.8748C33.5421 30.6248 32.7088 28.9581 32.5004 27.2915C32.2921 25.8331 32.2921 24.1665 32.5004 22.4998C32.7088 20.8331 33.5421 19.1665 34.7921 17.9165L36.2504 16.4582H36.4588C38.1254 16.4582 39.5838 14.9999 39.5838 13.3332C39.5838 11.6666 38.1254 10.2082 36.4588 10.2082C34.7921 10.2082 33.3338 11.6666 33.3338 13.3332V13.5415L31.8754 14.9999C30.6254 16.2499 28.9588 17.0831 27.2921 17.2915C25.8338 17.4998 24.1671 17.4998 22.5004 17.2915C20.8337 17.0831 19.1671 16.2499 17.9171 14.9999L16.4587 13.5415V13.3332C16.4587 11.6666 15.0004 10.2082 13.3337 10.2082C11.6671 10.2082 10.2087 11.6666 10.2087 13.3332C10.2087 14.9999 11.6671 16.4582 13.3337 16.4582H13.5421L15.0004 17.9165C16.2504 19.1665 17.0837 20.8331 17.2921 22.4998C17.5004 23.9581 17.5004 25.6248 17.2921 27.2915C17.0837 28.9581 16.2504 30.6248 15.0004 31.8748L13.5421 33.3332H13.3337C11.6671 33.3332 10.2087 34.7915 10.2087 36.4582C10.2087 38.1248 11.6671 39.5832 13.3337 39.5832C15.0004 39.5832 16.4587 38.1248 16.4587 36.4582V36.2499L17.9171 34.7915C19.1671 33.5415 20.8337 32.7081 22.5004 32.4998C23.9587 32.2915 25.6254 32.2915 27.2921 32.4998C28.9588 32.7081 30.6254 33.5415 31.8754 34.7915L33.3338 36.2499V36.4582C33.3338 38.1248 34.7921 39.5832 36.4588 39.5832C38.1254 39.5832 39.5838 38.1248 39.5838 36.4582C39.5838 34.7915 38.1254 33.3332 36.4588 33.3332Z" fill="#A1A5B7"/>
</svg>
