<svg width="50" height="50" viewBox="0 0 50 50" fill="none" xmlns="http://www.w3.org/2000/svg">
<path d="M25.0926 37.3843V25.3009L35.5093 31.3426C38.8426 33.2176 39.8843 37.5926 38.0093 40.9259C36.1343 44.2593 31.7593 45.3009 28.4259 43.4259C26.3426 42.1759 25.0926 39.8843 25.0926 37.3843ZM14.6759 31.3426L25.0926 25.3009L14.6759 19.2593C11.3426 17.3843 7.17591 18.4259 5.09258 21.7593C3.21758 25.0926 4.25927 29.2592 7.5926 31.3426C9.88427 32.5926 12.5926 32.5926 14.6759 31.3426ZM25.0926 13.2176V25.3009L35.5093 19.2593C38.8426 17.3843 39.8843 13.0093 38.0093 9.67592C36.1343 6.34259 31.7593 5.30093 28.4259 7.17593C26.3426 8.42593 25.0926 10.7176 25.0926 13.2176Z" fill="#A1A5B7"/>
<path opacity="0.3" d="M14.6763 19.2593C12.593 18.0093 11.1346 15.7176 11.1346 13.2176C11.1346 9.46762 14.2597 6.34261 18.0097 6.34261C21.7597 6.34261 24.8846 9.46762 24.8846 13.2176V25.301L14.6763 19.2593ZM35.5096 31.3426C37.593 32.5926 40.3013 32.5926 42.3846 31.3426C45.7179 29.4676 46.7596 25.0926 44.8846 21.7593C43.0096 18.426 38.6346 17.3843 35.3013 19.2593L24.8846 25.301L35.5096 31.3426ZM14.6763 31.3426C12.593 32.5926 11.1346 34.8843 11.1346 37.3843C11.1346 41.1343 14.2597 44.2593 18.0097 44.2593C21.7597 44.2593 24.8846 41.1343 24.8846 37.3843V25.301L14.6763 31.3426Z" fill="#A1A5B7"/>
</svg>
