<svg width="50" height="50" viewBox="0 0 50 50" fill="none" xmlns="http://www.w3.org/2000/svg">
<path d="M43.75 18.75V22.9166C43.75 24.1666 42.9167 25 41.6667 25H29.1667V16.6666H41.6667C42.9167 16.6666 43.75 17.5 43.75 18.75ZM20.8333 16.6666H8.33333C7.08333 16.6666 6.25 17.5 6.25 18.75V22.9166C6.25 24.1666 7.08333 25 8.33333 25H20.8333V16.6666Z" fill="#A1A5B7"/>
<path d="M31.25 4.16663C27.7083 4.16663 25 6.87496 25 10.4166V16.6666H31.25C34.7917 16.6666 37.5 13.9583 37.5 10.4166C37.5 6.87496 34.7917 4.16663 31.25 4.16663Z" fill="#A1A5B7"/>
<path opacity="0.3" d="M18.7499 4.16663C22.2916 4.16663 24.9999 6.87496 24.9999 10.4166V16.6666H18.7499C15.2083 16.6666 12.4999 13.9583 12.4999 10.4166C12.4999 6.87496 15.2083 4.16663 18.7499 4.16663ZM8.33325 25V43.75C8.33325 45 9.16659 45.8333 10.4166 45.8333H20.8333V25H8.33325ZM41.6666 25V43.75C41.6666 45 40.8332 45.8333 39.5832 45.8333H29.1666V25H41.6666Z" fill="#A1A5B7"/>
</svg>
