<svg width="50" height="50" viewBox="0 0 50 50" fill="none" xmlns="http://www.w3.org/2000/svg">
<path opacity="0.3" d="M43.5416 26.875C42.2916 26.875 41.4583 26.0417 41.4583 24.7917C41.4583 23.5417 42.2916 22.7083 43.5416 22.7083H45.4166C44.375 12.9167 36.6666 5 26.875 4.16666V6.04167C26.875 7.29167 26.0416 8.125 24.7916 8.125C23.5416 8.125 22.7083 7.29167 22.7083 6.04167V4.16666C12.9166 5.20833 4.99999 12.9167 4.16666 22.7083H6.04164C7.29164 22.7083 8.12498 23.5417 8.12498 24.7917C8.12498 26.0417 7.29164 26.875 6.04164 26.875H4.16666C5.20832 36.6667 12.9166 44.5833 22.7083 45.4167V43.5417C22.7083 42.2917 23.5416 41.4583 24.7916 41.4583C26.0416 41.4583 26.875 42.2917 26.875 43.5417V45.4167C36.6666 44.375 44.5833 36.6667 45.4166 26.875H43.5416Z" fill="#A1A5B7"/>
<path d="M35.2087 22.7082H28.3337C27.9171 22.0832 27.5004 21.6666 26.8754 21.2499V12.2915C26.8754 11.0415 26.0421 10.2082 24.7921 10.2082C23.5421 10.2082 22.7088 11.0415 22.7088 12.2915V21.2499C22.0838 21.6666 21.6671 22.0832 21.2504 22.7082H20.6254C19.3754 22.7082 18.5421 23.5415 18.5421 24.7915C18.5421 26.0415 19.3754 26.8749 20.6254 26.8749H21.2504C21.6671 27.4999 22.0838 27.9165 22.7088 28.3332V28.9582C22.7088 30.2082 23.5421 31.0415 24.7921 31.0415C26.0421 31.0415 26.8754 30.2082 26.8754 28.9582V28.3332C27.5004 27.9165 27.9171 27.4999 28.3337 26.8749H35.2087C36.4587 26.8749 37.2921 26.0415 37.2921 24.7915C37.2921 23.5415 36.4587 22.7082 35.2087 22.7082Z" fill="#A1A5B7"/>
</svg>
