<svg width="50" height="50" viewBox="0 0 50 50" fill="none" xmlns="http://www.w3.org/2000/svg">
<path opacity="0.3" d="M8.44689 31.6629C17.3865 16.1837 28.2886 6.79828 43.6011 4.1962C43.9024 4.14244 44.2122 4.16228 44.5043 4.25403C44.7963 4.34578 45.0618 4.50672 45.2783 4.72316C45.4947 4.9396 45.6557 5.20513 45.7474 5.49715C45.8391 5.78917 45.859 6.09903 45.8052 6.40036C43.2031 21.7129 33.8177 32.6149 18.3386 41.5545L8.44689 31.6629ZM7.9573 36.1191L5.48647 42.6004C5.38446 42.8678 5.362 43.159 5.42181 43.4389C5.48162 43.7189 5.62113 43.9755 5.82353 44.1779C6.02593 44.3803 6.28256 44.5198 6.56247 44.5796C6.84238 44.6394 7.13361 44.617 7.40105 44.5149L13.8865 42.042L7.9573 36.1191ZM34.3761 12.4962C33.758 12.4962 33.1538 12.6795 32.6399 13.0229C32.126 13.3662 31.7255 13.8543 31.4889 14.4253C31.2524 14.9963 31.1905 15.6247 31.3111 16.2309C31.4317 16.837 31.7293 17.3939 32.1663 17.8309C32.6034 18.2679 33.1602 18.5656 33.7664 18.6862C34.3726 18.8067 35.0009 18.7448 35.5719 18.5083C36.143 18.2718 36.631 17.8713 36.9744 17.3574C37.3178 16.8434 37.5011 16.2393 37.5011 15.6212C37.5011 14.7924 37.1718 13.9975 36.5858 13.4115C35.9997 12.8254 35.2049 12.4962 34.3761 12.4962Z" fill="#A1A5B7"/>
<path d="M8.4463 31.6627L4.68172 27.8982C4.48968 27.7061 4.34472 27.4722 4.25823 27.2148C4.17173 26.9574 4.14604 26.6834 4.18317 26.4144C4.22031 26.1453 4.31926 25.8886 4.47226 25.6642C4.62527 25.4398 4.82816 25.2539 5.06505 25.1211L19.0692 17.269C14.9448 21.6077 11.3764 26.4427 8.4463 31.6627ZM18.3338 41.5502L22.0984 45.3148C22.2904 45.5069 22.5243 45.6518 22.7818 45.7383C23.0392 45.8248 23.3132 45.8505 23.5822 45.8134C23.8512 45.7762 24.108 45.6773 24.3324 45.5243C24.5568 45.3713 24.7426 45.1684 24.8755 44.9315L32.7276 30.9252C28.3895 35.0509 23.5543 38.62 18.3338 41.5502ZM14.6671 37.8815L26.2151 26.3336C26.5376 25.9913 26.7142 25.5368 26.7072 25.0665C26.7003 24.5963 26.5104 24.1472 26.1778 23.8146C25.8452 23.482 25.3961 23.2921 24.9259 23.2852C24.4556 23.2782 24.0011 23.4547 23.6588 23.7773L12.1109 35.3253L14.6671 37.8815Z" fill="#A1A5B7"/>
</svg>
