<svg width="50" height="50" viewBox="0 0 50 50" fill="none" xmlns="http://www.w3.org/2000/svg">
<path opacity="0.3" d="M43.75 22.3317H6.24999C4.99999 22.3317 4.16666 23.1651 4.16666 24.4151C4.16666 25.6651 4.99999 26.4984 6.24999 26.4984H12.5V30.6651C12.5 37.5401 18.125 43.1651 25 43.1651C31.875 43.1651 37.5 37.5401 37.5 30.6651V26.4984H43.75C45 26.4984 45.8333 25.6651 45.8333 24.4151C45.8333 23.1651 45 22.3317 43.75 22.3317Z" fill="#A1A5B7"/>
<path d="M24.1667 45.665C23.75 45.665 23.3333 45.4566 22.9167 45.2483C22.0833 44.6233 21.875 43.1649 22.5 42.3315C24.375 39.8315 25.625 37.1232 26.4583 33.9982C26.6667 32.9565 27.9166 32.1233 28.9583 32.54C30 32.7483 30.8333 33.9982 30.4167 35.0399C29.5833 38.5815 27.9166 41.9149 25.8333 44.8316C25.4166 45.2482 24.7917 45.665 24.1667 45.665ZM18.125 41.0816C21.25 37.7483 22.9167 33.1649 22.9167 28.5816V18.1649C22.9167 16.9149 23.75 16.0816 25 16.0816C26.25 16.0816 27.0833 16.9149 27.0833 18.1649V27.1232C27.0833 28.3732 27.9167 29.2066 29.1667 29.2066C30.4167 29.2066 31.25 28.3732 31.25 27.1232V18.1649C31.25 14.6233 28.5417 11.9149 25 11.9149C21.4583 11.9149 18.75 14.6233 18.75 18.1649V28.5816C18.75 32.1233 17.5 35.6649 15 38.1649C14.1667 38.9982 14.375 40.2483 15.2083 41.0816C15.625 41.4983 16.0417 41.7066 16.6667 41.7066C17.2917 41.7066 17.7083 41.4983 18.125 41.0816ZM12.5 34.8316C13.5417 34.8316 14.5833 33.7899 14.5833 32.7483V18.1649C14.5833 16.9149 14.7917 15.665 15.2083 14.415C15.625 13.3733 15 12.1233 13.9583 11.7066C12.9167 11.29 11.6666 11.9149 11.25 12.9566C10.625 14.6233 10.4167 16.2899 10.4167 18.1649V32.7483V32.9565C10.4167 33.9982 11.4583 34.8316 12.5 34.8316ZM18.75 9.8316C19.7917 8.99826 21.0417 8.58162 22.2917 8.16496C23.3333 7.95662 23.9583 6.7066 23.75 5.66493C23.5416 4.62326 22.2917 3.99824 21.25 4.20657C19.5833 4.62324 17.9166 5.45665 16.4583 6.49832C15.625 7.12332 15.4167 8.58157 16.0417 9.41491C16.4583 10.0399 17.0833 10.2483 17.7083 10.2483C17.9167 10.2483 18.3333 10.0399 18.75 9.8316ZM37.9167 39.415C38.9583 35.8733 39.5833 32.3316 39.5833 28.5816V18.1649C39.5833 11.9149 35.625 6.49832 29.7917 4.41498C28.75 3.99832 27.5 4.62326 27.0833 5.66493C26.6667 6.7066 27.2917 7.95657 28.3333 8.37324C32.5 9.83157 35.4167 13.7899 35.4167 18.1649V28.5816C35.4167 31.9149 35 35.0399 33.9583 38.1649C33.5417 39.2065 34.1666 40.4566 35.2083 40.8733C35.4166 40.8733 35.625 40.8733 35.8333 40.8733C36.875 40.8733 37.5 40.2483 37.9167 39.415Z" fill="#A1A5B7"/>
</svg>
