<svg width="30" height="30" viewBox="0 0 30 30" fill="none" xmlns="http://www.w3.org/2000/svg">
<rect opacity="0.3" width="15" height="2.5" rx="1.25" transform="matrix(-1 0 0 1 25 13.7501)" fill="#A1A5B7"/>
<path d="M22.7563 14.6927L20.4696 12.7871C19.8818 12.2973 19.8415 11.4085 20.3825 10.8675C20.8696 10.3804 21.6521 10.3574 22.167 10.8151L26.0342 14.2526C26.4817 14.6504 26.4817 15.3496 26.0342 15.7474L22.167 19.1849C21.6521 19.6426 20.8696 19.6196 20.3825 19.1325C19.8415 18.5915 19.8818 17.7027 20.4696 17.2129L22.7563 15.3073C22.9482 15.1474 22.9482 14.8526 22.7563 14.6927Z" fill="#A1A5B7"/>
<path opacity="0.5" d="M20 5.75V7.75C20 8.30228 19.5523 8.75 19 8.75H18.5C17.9477 8.75 17.5 8.30228 17.5 7.75V7.25C17.5 6.69772 17.0523 6.25 16.5 6.25H7.25C6.69772 6.25 6.25 6.69772 6.25 7.25V22.75C6.25 23.3023 6.69771 23.75 7.25 23.75H16.5C17.0523 23.75 17.5 23.3023 17.5 22.75V22.25C17.5 21.6977 17.9477 21.25 18.5 21.25H19C19.5523 21.25 20 21.6977 20 22.25V24.25C20 25.3546 19.1046 26.25 18 26.25H5.75C4.64543 26.25 3.75 25.3546 3.75 24.25V5.75C3.75 4.64543 4.64543 3.75 5.75 3.75H18C19.1046 3.75 20 4.64543 20 5.75Z" fill="#A1A5B7"/>
</svg>
