<svg width="30" height="30" viewBox="0 0 30 30" fill="none" xmlns="http://www.w3.org/2000/svg">
<path opacity="0.3" d="M2.62488 12.5C3.74988 7 8.37485 2.875 13.9998 2.5L10.9999 5.49999L13.8749 8.75C11.9999 9.125 10.3749 10.25 9.49988 12L5.62487 15.5L2.62488 12.5ZM24.1249 14.375L20.4999 17.5C19.6249 19.375 17.9998 20.75 15.8748 21.125L18.7499 24.375L15.7499 27.375C21.3749 27 25.9998 22.75 27.1248 17.375L24.1249 14.375Z" fill="#A1A5B7"/>
<path d="M17.25 2.625C22.75 3.75 26.875 8.37501 27.25 14L24.25 11L21 13.75C20.625 11.75 19.375 10.125 17.5 9.25L14.25 5.5L17.25 2.625ZM15.375 24.25L12.125 20.5C10.375 19.625 9.125 18 8.75 16L5.49999 18.875L2.5 15.875C2.875 21.5 7.125 26.125 12.5 27.25L15.375 24.25Z" fill="#A1A5B7"/>
</svg>
