<svg width="30" height="30" viewBox="0 0 30 30" fill="none" xmlns="http://www.w3.org/2000/svg">
<path opacity="0.3" d="M26.25 27.5H3.75C3 27.5 2.5 27 2.5 26.25V6.25C2.5 5.5 3 5 3.75 5H26.25C27 5 27.5 5.5 27.5 6.25V26.25C27.5 27 27 27.5 26.25 27.5Z" fill="#A1A5B7"/>
<path d="M7.5 7.5C6.75 7.5 6.25 7 6.25 6.25V3.75C6.25 3 6.75 2.5 7.5 2.5C8.25 2.5 8.75 3 8.75 3.75V6.25C8.75 7 8.25 7.5 7.5 7.5ZM13.75 6.25V3.75C13.75 3 13.25 2.5 12.5 2.5C11.75 2.5 11.25 3 11.25 3.75V6.25C11.25 7 11.75 7.5 12.5 7.5C13.25 7.5 13.75 7 13.75 6.25ZM18.75 6.25V3.75C18.75 3 18.25 2.5 17.5 2.5C16.75 2.5 16.25 3 16.25 3.75V6.25C16.25 7 16.75 7.5 17.5 7.5C18.25 7.5 18.75 7 18.75 6.25ZM23.75 6.25V3.75C23.75 3 23.25 2.5 22.5 2.5C21.75 2.5 21.25 3 21.25 3.75V6.25C21.25 7 21.75 7.5 22.5 7.5C23.25 7.5 23.75 7 23.75 6.25Z" fill="#A1A5B7"/>
<path d="M10.9999 16.3751C11.4999 16.3751 11.8749 16.2501 12.1249 16.0001C12.3749 15.7501 12.6249 15.375 12.6249 14.875C12.6249 14.5 12.4999 14.1251 12.2499 13.8751C11.9999 13.6251 11.6249 13.5001 11.2499 13.5001C10.9999 13.5001 10.7499 13.5 10.4999 13.625C10.2499 13.75 10.1249 13.875 9.99987 14C9.87487 14.125 9.74987 14.2501 9.62487 14.5001C9.49987 14.7501 9.37487 14.8751 9.37487 15.1251C9.37487 15.2501 9.24987 15.2501 9.12487 15.3751C8.99987 15.5001 8.87486 15.5 8.62486 15.5C8.37486 15.5 8.24987 15.375 8.12487 15.25C7.99987 15.125 7.87487 14.875 7.87487 14.625C7.87487 14.375 7.99987 14.1251 8.12487 13.8751C8.24987 13.6251 8.49987 13.3751 8.74987 13.1251C8.99987 12.8751 9.37486 12.6251 9.87486 12.5001C10.3749 12.3751 10.7499 12.2501 11.3749 12.2501C11.8749 12.2501 12.2499 12.3751 12.6249 12.5001C12.9999 12.6251 13.3749 12.875 13.6249 13C13.8749 13.125 14.1249 13.5001 14.2499 13.8751C14.3749 14.2501 14.4999 14.5 14.4999 14.875C14.4999 15.375 14.3749 15.75 14.1249 16.125C13.8749 16.5 13.6249 16.875 13.2499 17.125C13.6249 17.375 13.9999 17.6251 14.2499 17.8751C14.4999 18.1251 14.7499 18.3751 14.8749 18.7501C14.9999 19.1251 15.1249 19.3751 15.1249 19.7501C15.1249 20.2501 14.9999 20.6251 14.8749 21.0001C14.7499 21.3751 14.3749 21.75 14.1249 22.125C13.8749 22.5 13.3749 22.7501 12.8749 22.8751C12.3749 23.0001 11.8749 23.1251 11.2499 23.1251C10.6249 23.1251 10.1249 23 9.62487 22.75C9.12487 22.5 8.74987 22.2501 8.49987 22.0001C8.24987 21.7501 7.99987 21.3751 7.87487 21.0001C7.74987 20.6251 7.62488 20.3751 7.62488 20.1251C7.62488 19.8751 7.74987 19.6251 7.87487 19.5001C7.99987 19.3751 8.24987 19.25 8.49987 19.25C8.62487 19.25 8.74988 19.2501 8.87488 19.3751C8.99988 19.5001 9.12487 19.5 9.12487 19.625C9.37487 20.25 9.62487 20.75 9.99987 21.125C10.3749 21.5 10.7499 21.6251 11.2499 21.6251C11.4999 21.6251 11.8749 21.5001 12.1249 21.3751C12.3749 21.2501 12.6249 21.0001 12.8749 20.7501C13.1249 20.5001 13.1249 20.1251 13.1249 19.7501C13.1249 19.1251 12.9999 18.75 12.6249 18.375C12.2499 18 11.8749 17.8751 11.3749 17.8751C11.2499 17.8751 11.1249 17.8751 10.8749 17.8751C10.6249 17.8751 10.4999 17.8751 10.4999 17.8751C10.2499 17.8751 9.99986 17.7501 9.87486 17.6251C9.74986 17.5001 9.62487 17.25 9.62487 17.125C9.62487 16.875 9.74986 16.75 9.87486 16.5C9.99986 16.25 10.2499 16.2501 10.6249 16.2501H10.9999V16.3751ZM19.1249 21.8751V15.25C17.8749 16.25 16.9999 16.6251 16.6249 16.6251C16.3749 16.6251 16.2499 16.5001 16.1249 16.3751C15.9999 16.2501 15.8749 16.0001 15.8749 15.7501C15.8749 15.5001 15.9999 15.375 16.1249 15.25C16.2499 15.125 16.4999 15.0001 16.9999 14.7501C17.6249 14.5001 18.1249 14.1251 18.3749 13.8751C18.6249 13.6251 18.9999 13.2501 19.3749 12.8751C19.7499 12.5001 19.8749 12.25 19.8749 12.125C19.8749 12 20.1249 12.0001 20.3749 12.0001C20.6249 12.0001 20.8749 12.1251 20.9999 12.2501C21.1249 12.3751 21.2499 12.7501 21.2499 13.1251V21.5C21.2499 22.5 20.8749 23 20.2499 23C19.9999 23 19.7499 22.875 19.4999 22.75C19.2499 22.625 19.1249 22.2501 19.1249 21.8751Z" fill="#A1A5B7"/>
</svg>
