<svg width="30" height="30" viewBox="0 0 30 30" fill="none" xmlns="http://www.w3.org/2000/svg">
<path d="M10.875 5.24997L5 7.87509V23.6249L10.875 21.0001V23.75L3.875 26.875C3.25 27.125 2.5 26.7501 2.5 26.0001V7.50003C2.5 6.75003 2.875 6.12497 3.625 5.87497L10.875 2.625V5.24997Z" fill="#A1A5B7"/>
<path d="M19.1249 24.7501L24.9999 22.1249V6.37496L19.1249 8.99993V6.24999L26.1249 3.12499C26.7499 2.87499 27.4999 3.24993 27.4999 3.99993V22.5C27.4999 23.25 27.1249 23.8751 26.3749 24.1251L19.1249 27.3749V24.7501Z" fill="#A1A5B7"/>
<path opacity="0.3" d="M19.1249 8.99997L24.9999 6.375V22.125L19.1249 24.7501V8.99997Z" fill="#A1A5B7"/>
<path opacity="0.3" d="M10.8751 5.24994V2.5L19.2501 6.25V8.99994L10.8751 5.24994ZM10.8751 21.0001V23.75L19.2501 27.5V24.7501L10.8751 21.0001Z" fill="#A1A5B7"/>
<path opacity="0.3" d="M10.875 21.0001L5 23.6249V7.87512L10.875 5.25V21.0001Z" fill="#A1A5B7"/>
</svg>
