<svg width="18" height="18" viewBox="0 0 18 18" fill="none" xmlns="http://www.w3.org/2000/svg">
<path d="M4.5 6.00003V15C4.5 15.8285 5.17157 16.5 6 16.5H12C12.8284 16.5 13.5 15.8285 13.5 15V6.00003H4.5Z" fill="#7E8299"/>
<path opacity="0.3" fill-rule="evenodd" clip-rule="evenodd" d="M10.5 3.375V3.25C10.5 2.69772 10.0523 2.25 9.5 2.25H8.5C7.94772 2.25 7.5 2.69772 7.5 3.25V3.375H4.25C3.97386 3.375 3.75 3.59886 3.75 3.875V4C3.75 4.27614 3.97386 4.5 4.25 4.5H13.75C14.0261 4.5 14.25 4.27614 14.25 4V3.875C14.25 3.59886 14.0261 3.375 13.75 3.375H10.5Z" fill="#7E8299"/>
</svg>
