<svg width="16" height="16" viewBox="0 0 16 16" fill="none" xmlns="http://www.w3.org/2000/svg">
<path d="M14.1381 2.98637C14.7156 3.56378 14.725 4.49698 14.1594 5.08597L8.74255 10.7271C8.46725 11.0137 8.08944 11.1795 7.69207 11.1878L5.41674 11.2355L5.4648 8.94497C5.47295 8.55664 5.63141 8.1866 5.90685 7.91274L11.4439 2.40735C12.0302 1.82442 12.9776 1.82578 13.5622 2.41038L14.1381 2.98637Z" fill="#7E8299"/>
<path opacity="0.3" d="M8.60004 1.33331C8.96823 1.33331 9.26671 1.63179 9.26671 1.99998C9.26671 2.36817 8.96823 2.66665 8.60004 2.66665H4.00004C3.26366 2.66665 2.66671 3.2636 2.66671 3.99998V12C2.66671 12.7364 3.26366 13.3333 4.00004 13.3333H12C12.7364 13.3333 13.3334 12.7364 13.3334 12V8.66665C13.3334 8.29846 13.6319 7.99998 14 7.99998C14.3682 7.99998 14.6667 8.29846 14.6667 8.66665V12C14.6667 13.4727 13.4728 14.6666 12 14.6666H4.00004C2.52728 14.6666 1.33337 13.4727 1.33337 12V3.99998C1.33337 2.52722 2.52728 1.33331 4.00004 1.33331H8.60004Z" fill="#7E8299"/>
</svg>
